<svg width="207" height="53" viewBox="0 0 207 53" fill="none" xmlns="http://www.w3.org/2000/svg">
<path fill-rule="evenodd" clip-rule="evenodd" d="M193.378 50.5752C190.084 50.5752 187.324 49.7958 185.098 48.3235C182.872 46.8513 181.181 44.7729 180.023 42.1748C178.866 39.5768 178.332 36.719 178.332 33.5147C178.332 30.3105 178.866 27.4526 180.023 24.8546C181.181 22.2565 182.872 20.1781 185.009 18.7059C187.146 17.2337 189.728 16.4542 192.666 16.4542C197.474 16.4542 201.124 17.7533 203.439 20.4379C205.843 23.0359 207 26.8464 207 31.8693L206.822 34.6405H185.009C185.009 38.5376 185.899 41.7418 187.591 44.2533C189.283 46.7647 191.686 47.9771 194.714 47.9771C196.939 47.9771 198.898 47.5441 200.412 46.5915C201.925 45.6389 203.439 44.2533 204.774 42.4346L206.199 43.4739C204.596 46.0719 202.815 47.8905 200.679 49.1029C198.72 49.969 196.227 50.5752 193.378 50.5752ZM6.49935 12.1242C6.49935 9.78594 6.14323 7.96731 5.52 6.84149C4.80774 5.71568 3.47226 5.10947 1.51355 5.10947H0V3.72385H28.6684C32.7639 3.72385 34.8116 5.62907 34.8116 9.35293V14.6356H33.3871C33.3871 9.26633 30.36 6.58169 24.3948 6.58169H12.9097V25.1144H29.1135V27.8856H12.9097V49.8824H6.49935V12.1242ZM92.0594 25.3742C92.0594 23.0359 91.7032 21.2173 91.08 20.0915C90.3677 18.9657 89.0323 18.3595 87.0735 18.3595H86.3613V16.9738H92.1484C93.929 16.9738 95.3535 17.2337 96.2439 17.6667C97.1342 18.1863 97.8464 18.9657 98.2026 20.0915C99.271 19.0523 100.517 18.1863 102.12 17.4069C103.634 16.6274 105.325 16.281 107.195 16.281C109.154 16.281 110.578 16.6274 111.468 17.3203C112.27 17.9265 113.16 18.9657 113.961 20.4379L111.112 22.5163C110.578 21.8235 109.777 21.3039 108.797 20.9575C107.818 20.6111 106.661 20.4379 105.325 20.4379C103.901 20.4379 102.565 20.7843 101.408 21.3905C100.25 21.9967 99.271 22.8627 98.5587 23.902V49.7092H92.0594V25.3742ZM175.305 53C171.832 53 169.161 52.4804 167.292 51.4412C165.333 50.402 163.997 48.8431 163.196 46.6781C162.395 44.5131 162.039 41.5686 162.039 38.018V11.085L144.054 49.8824H142.63L123.933 10.3921V49.8824H121.084V3.72385H127.939L145.212 40.0964L162.128 3.72385H168.627V37.9314C168.627 42.2614 169.161 45.6389 170.319 47.9771C171.476 50.3154 173.168 51.5278 175.483 51.5278V53H175.305ZM200.234 31.6961C200.234 27.6258 199.61 24.5082 198.364 22.3431C197.117 20.1781 195.248 19.1389 192.666 19.1389C191.241 19.1389 189.906 19.6585 188.748 20.7843C187.591 21.9101 186.701 23.3823 186.077 25.2876C185.454 27.1928 185.098 29.3578 185.098 31.6961H200.234Z" fill="url(#paint0_linear)"/>
<path fill-rule="evenodd" clip-rule="evenodd" d="M58.049 16.1078C57.8709 16.1078 57.6039 16.1078 57.3368 16.0212C60.72 18.2729 64.1032 20.6977 66.418 23.2092C68.4658 25.5474 70.7806 29.7043 69.6232 33.9477C69.2671 33.2549 69.4451 29.7043 66.9522 26.8464C64.1032 23.5556 59.7406 21.3905 58.8503 21.9101C57.8709 22.4297 57.1587 25.3742 59.0284 27.6258C62.7677 32.0425 65.4387 32.8219 66.24 38.9706C66.6851 42.348 66.9522 47.3709 67.0413 51.5278C67.7535 51.5278 68.3768 51.3546 69.089 51.0948C70.0684 50.6618 71.6709 49.536 72.3832 48.6699C72.4722 48.5833 72.5613 48.4967 72.6503 48.4101L74.9651 45.5523C75.9445 44.3399 77.28 42.0016 77.9032 40.616C78.6155 38.9706 79.2387 37.4984 79.7729 35.6797C79.8619 35.3333 79.951 35.0735 80.04 34.8137C81.5535 28.9248 81.0193 21.9967 76.4787 17.5801L75.5884 16.8007C74.9651 16.281 74.2529 15.848 73.5406 15.415C72.6503 14.982 72.0271 14.7222 71.0477 14.4624C70.2464 14.2026 69.089 14.0294 68.0206 14.0294C66.1509 14.0294 65.7058 14.2892 64.1032 14.7222C63.7471 14.8088 63.48 14.982 63.1239 15.0686C62.0555 15.415 60.0968 16.281 59.0284 16.281C58.9393 16.281 58.7613 16.281 58.6722 16.1944C58.3161 16.1078 58.138 16.1078 58.049 16.1078ZM57.3368 16.0212C56.2684 15.7614 54.8438 15.2418 53.9535 14.8954C53.5974 14.8088 53.3303 14.6356 52.9742 14.549C51.4606 14.116 50.9264 13.9428 49.3239 13.8562C58.4051 26.2402 48.4335 29.4444 57.3368 42.1748L57.96 42.8677C60.0077 45.3791 62.2335 47.8039 63.658 50.6618C63.3909 50.5752 63.0348 50.402 62.6787 50.3154C61.1651 49.7092 59.8297 49.4494 58.4051 49.3628C57.0697 49.3628 55.6451 49.7092 54.1316 50.3154C51.9058 51.1814 50.0361 51.8742 47.8103 51.0082C46.8309 50.5752 45.2284 49.4494 44.5161 48.5833C44.4271 48.4967 44.338 48.4101 44.249 48.3235L41.9342 45.4657C40.9548 44.2533 39.6193 41.915 38.9961 40.5294C38.2838 38.884 37.6606 37.4118 37.1264 35.5931C37.0374 35.2467 36.9484 34.9869 36.8593 34.7271C35.3458 28.8382 35.88 21.9101 40.4206 17.4935L41.3109 16.7141C41.9342 16.1944 42.6464 15.7614 43.3587 15.3284C44.249 14.8954 44.8722 14.6356 45.8516 14.3758C46.6529 14.116 47.8103 13.9428 48.8787 13.9428H49.1458C49.0568 13.7696 48.8787 13.5964 48.7006 13.4232C46.0297 9.69935 43.8039 4.41667 46.2968 0C45.5845 8.91994 50.2142 11.1716 57.3368 16.0212ZM56.4464 13.8562C56.0013 13.3366 55.5561 12.6438 55.378 12.1242C54.7548 10.652 54.6658 9.00654 55.111 7.62092C55.289 6.92811 55.6451 6.23529 56.0903 5.62909L56.6245 5.02288C56.8916 4.76307 57.6039 4.07026 57.8709 3.81046C58.3161 3.46405 58.9393 3.03105 59.6516 2.68464C59.8297 2.85784 59.9187 2.94444 60.0968 3.11765C61.6103 4.76307 61.9664 5.80229 62.1445 7.44771C62.2335 7.88072 62.1445 8.83333 62.0555 9.26634C62.0555 9.43954 62.0555 9.43954 61.9664 9.61275L61.6993 10.652C61.6103 10.9984 61.4322 11.2582 61.2542 11.6046C60.809 12.384 60.5419 12.7304 59.7406 13.4232C58.9393 14.116 58.2271 14.3758 57.1587 14.8088C56.9806 14.6356 56.9806 14.6356 56.8026 14.4624L56.4464 13.8562Z" fill="url(#paint1_linear)"/>
<g style="mix-blend-mode:multiply" opacity="0.5">
<path fill-rule="evenodd" clip-rule="evenodd" d="M193.378 50.5752C190.084 50.5752 187.324 49.7958 185.098 48.3235C182.872 46.8513 181.181 44.7729 180.023 42.1748C178.866 39.5768 178.332 36.719 178.332 33.5147C178.332 30.3105 178.866 27.4526 180.023 24.8546C181.181 22.2565 182.872 20.1781 185.009 18.7059C187.146 17.2337 189.728 16.4542 192.666 16.4542C197.474 16.4542 201.124 17.7533 203.439 20.4379C205.843 23.0359 207 26.8464 207 31.8693L206.822 34.6405H185.009C185.009 38.5376 185.899 41.7418 187.591 44.2533C189.283 46.7647 191.686 47.9771 194.714 47.9771C196.939 47.9771 198.898 47.5441 200.412 46.5915C201.925 45.6389 203.439 44.2533 204.774 42.4346L206.199 43.4739C204.596 46.0719 202.815 47.8905 200.679 49.1029C198.72 49.969 196.227 50.5752 193.378 50.5752ZM6.49935 12.1242C6.49935 9.78594 6.14323 7.96731 5.52 6.84149C4.80774 5.71568 3.47226 5.10947 1.51355 5.10947H0V3.72385H28.6684C32.7639 3.72385 34.8116 5.62907 34.8116 9.35293V14.6356H33.3871C33.3871 9.26633 30.36 6.58169 24.3948 6.58169H12.9097V25.1144H29.1135V27.8856H12.9097V49.8824H6.49935V12.1242ZM92.0594 25.3742C92.0594 23.0359 91.7032 21.2173 91.08 20.0915C90.3677 18.9657 89.0323 18.3595 87.0735 18.3595H86.3613V16.9738H92.1484C93.929 16.9738 95.3535 17.2337 96.2439 17.6667C97.1342 18.1863 97.8464 18.9657 98.2026 20.0915C99.271 19.0523 100.517 18.1863 102.12 17.4069C103.634 16.6274 105.325 16.281 107.195 16.281C109.154 16.281 110.578 16.6274 111.468 17.3203C112.27 17.9265 113.16 18.9657 113.961 20.4379L111.112 22.5163C110.578 21.8235 109.777 21.3039 108.797 20.9575C107.818 20.6111 106.661 20.4379 105.325 20.4379C103.901 20.4379 102.565 20.7843 101.408 21.3905C100.25 21.9967 99.271 22.8627 98.5587 23.902V49.7092H92.0594V25.3742ZM175.305 53C171.832 53 169.161 52.4804 167.292 51.4412C165.333 50.402 163.997 48.8431 163.196 46.6781C162.395 44.5131 162.039 41.5686 162.039 38.018V11.085L144.054 49.8824H142.63L123.933 10.3921V49.8824H121.084V3.72385H127.939L145.212 40.0964L162.128 3.72385H168.627V37.9314C168.627 42.2614 169.161 45.6389 170.319 47.9771C171.476 50.3154 173.168 51.5278 175.483 51.5278V53H175.305ZM200.234 31.6961C200.234 27.6258 199.61 24.5082 198.364 22.3431C197.117 20.1781 195.248 19.1389 192.666 19.1389C191.241 19.1389 189.906 19.6585 188.748 20.7843C187.591 21.9101 186.701 23.3823 186.077 25.2876C185.454 27.1928 185.098 29.3578 185.098 31.6961H200.234Z" fill="url(#paint2_linear)"/>
<path fill-rule="evenodd" clip-rule="evenodd" d="M58.049 16.1078C57.8709 16.1078 57.6039 16.1078 57.3368 16.0212C60.72 18.2729 64.1032 20.6977 66.418 23.2092C68.4658 25.5474 70.7806 29.7043 69.6232 33.9477C69.2671 33.2549 69.4451 29.7043 66.9522 26.8464C64.1032 23.5556 59.7406 21.3905 58.8503 21.9101C57.8709 22.4297 57.1587 25.3742 59.0284 27.6258C62.7677 32.0425 65.4387 32.8219 66.24 38.9706C66.6851 42.348 66.9522 47.3709 67.0413 51.5278C67.7535 51.5278 68.3768 51.3546 69.089 51.0948C70.0684 50.6618 71.6709 49.536 72.3832 48.6699C72.4722 48.5833 72.5613 48.4967 72.6503 48.4101L74.9651 45.5523C75.9445 44.3399 77.28 42.0016 77.9032 40.616C78.6155 38.9706 79.2387 37.4984 79.7729 35.6797C79.8619 35.3333 79.951 35.0735 80.04 34.8137C81.5535 28.9248 81.0193 21.9967 76.4787 17.5801L75.5884 16.8007C74.9651 16.281 74.2529 15.848 73.5406 15.415C72.6503 14.982 72.0271 14.7222 71.0477 14.4624C70.2464 14.2026 69.089 14.0294 68.0206 14.0294C66.1509 14.0294 65.7058 14.2892 64.1032 14.7222C63.7471 14.8088 63.48 14.982 63.1239 15.0686C62.0555 15.415 60.0968 16.281 59.0284 16.281C58.9393 16.281 58.7613 16.281 58.6722 16.1944C58.3161 16.1078 58.138 16.1078 58.049 16.1078ZM57.3368 16.0212C56.2684 15.7614 54.8438 15.2418 53.9535 14.8954C53.5974 14.8088 53.3303 14.6356 52.9742 14.549C51.4606 14.116 50.9264 13.9428 49.3239 13.8562C58.4051 26.2402 48.4335 29.4444 57.3368 42.1748L57.96 42.8677C60.0077 45.3791 62.2335 47.8039 63.658 50.6618C63.3909 50.5752 63.0348 50.402 62.6787 50.3154C61.1651 49.7092 59.8297 49.4494 58.4051 49.3628C57.0697 49.3628 55.6451 49.7092 54.1316 50.3154C51.9058 51.1814 50.0361 51.8742 47.8103 51.0082C46.8309 50.5752 45.2284 49.4494 44.5161 48.5833C44.4271 48.4967 44.338 48.4101 44.249 48.3235L41.9342 45.4657C40.9548 44.2533 39.6193 41.915 38.9961 40.5294C38.2838 38.884 37.6606 37.4118 37.1264 35.5931C37.0374 35.2467 36.9484 34.9869 36.8593 34.7271C35.3458 28.8382 35.88 21.9101 40.4206 17.4935L41.3109 16.7141C41.9342 16.1944 42.6464 15.7614 43.3587 15.3284C44.249 14.8954 44.8722 14.6356 45.8516 14.3758C46.6529 14.116 47.8103 13.9428 48.8787 13.9428H49.1458C49.0568 13.7696 48.8787 13.5964 48.7006 13.4232C46.0297 9.69935 43.8039 4.41667 46.2968 0C45.5845 8.91994 50.2142 11.1716 57.3368 16.0212ZM56.4464 13.8562C56.0013 13.3366 55.5561 12.6438 55.378 12.1242C54.7548 10.652 54.6658 9.00654 55.111 7.62092C55.289 6.92811 55.6451 6.23529 56.0903 5.62909L56.6245 5.02288C56.8916 4.76307 57.6039 4.07026 57.8709 3.81046C58.3161 3.46405 58.9393 3.03105 59.6516 2.68464C59.8297 2.85784 59.9187 2.94444 60.0968 3.11765C61.6103 4.76307 61.9664 5.80229 62.1445 7.44771C62.2335 7.88072 62.1445 8.83333 62.0555 9.26634C62.0555 9.43954 62.0555 9.43954 61.9664 9.61275L61.6993 10.652C61.6103 10.9984 61.4322 11.2582 61.2542 11.6046C60.809 12.384 60.5419 12.7304 59.7406 13.4232C58.9393 14.116 58.2271 14.3758 57.1587 14.8088C56.9806 14.6356 56.9806 14.6356 56.8026 14.4624L56.4464 13.8562Z" fill="url(#paint3_linear)"/>
</g>
<defs>
<linearGradient id="paint0_linear" x1="36.2472" y1="25.7682" x2="207" y2="26.5512" gradientUnits="userSpaceOnUse">
<stop stop-color="#00617E"/>
<stop offset="0.526042" stop-color="#3895A7"/>
<stop offset="1" stop-color="#64C2C8"/>
</linearGradient>
<linearGradient id="paint1_linear" x1="36.2472" y1="25.7682" x2="207" y2="26.5512" gradientUnits="userSpaceOnUse">
<stop stop-color="#00617E"/>
<stop offset="0.526042" stop-color="#3895A7"/>
<stop offset="1" stop-color="#64C2C8"/>
</linearGradient>
<linearGradient id="paint2_linear" x1="36.2472" y1="25.7682" x2="207" y2="26.5512" gradientUnits="userSpaceOnUse">
<stop stop-color="#00617E"/>
<stop offset="0.526042" stop-color="#3895A7"/>
<stop offset="1" stop-color="#64C2C8"/>
</linearGradient>
<linearGradient id="paint3_linear" x1="36.2472" y1="25.7682" x2="207" y2="26.5512" gradientUnits="userSpaceOnUse">
<stop stop-color="#00617E"/>
<stop offset="0.526042" stop-color="#3895A7"/>
<stop offset="1" stop-color="#64C2C8"/>
</linearGradient>
</defs>
</svg>
